<?xml version="1.0" standalone="no"?>
<!DOCTYPE svg PUBLIC "-//W3C//DTD SVG 20010904//EN"
 "http://www.w3.org/TR/2001/REC-SVG-20010904/DTD/svg10.dtd">
<svg version="1.0" xmlns="http://www.w3.org/2000/svg"
 width="204.000000pt" height="192.000000pt" viewBox="0 0 204.000000 192.000000"
 preserveAspectRatio="xMidYMid meet">
<metadata>
Created by potrace 1.10, written by Peter Selinger 2001-2011
</metadata>
<g transform="translate(0.000000,192.000000) scale(0.100000,-0.100000)"
fill="#000000" stroke="none">
<path d="M606 1898 c-69 -51 -159 -244 -136 -289 6 -10 14 -19 18 -20 16 -1
103 -10 190 -20 108 -12 117 -9 133 57 22 88 127 152 231 142 105 -10 155 -79
160 -218 l3 -85 -135 -12 c-301 -28 -458 -92 -557 -226 -60 -82 -86 -168 -85
-287 0 -133 26 -211 94 -285 59 -65 101 -89 195 -111 83 -20 201 -13 296 16
64 20 157 80 206 134 14 14 28 26 31 26 4 0 26 -27 49 -59 53 -76 113 -125
144 -117 23 6 226 177 240 202 9 16 -4 44 -45 96 -62 80 -62 77 -68 498 -6
367 -7 388 -28 441 -24 60 -85 139 -108 139 -21 0 -18 -9 26 -74 22 -32 45
-75 52 -95 7 -24 13 -165 17 -416 7 -416 5 -402 71 -506 17 -25 30 -54 30 -65
-1 -21 -146 -153 -186 -169 -27 -10 -41 1 -140 118 -18 21 -40 37 -52 37 -12
0 -45 -20 -75 -44 -127 -103 -197 -130 -347 -130 -160 -1 -258 49 -318 161
-87 165 -52 400 79 517 99 89 223 130 479 156 108 12 127 17 148 37 22 22 24
30 20 117 -3 83 -6 98 -33 142 -95 152 -333 130 -420 -40 l-29 -59 -99 7 c-54
4 -110 11 -123 17 -23 8 -25 13 -19 42 11 47 48 117 90 167 47 56 60 80 43 80
-7 0 -26 -10 -42 -22z"/>
<path d="M1034 1285 c-34 -7 -84 -25 -111 -39 -60 -30 -129 -105 -143 -155
-15 -54 -12 -166 6 -209 41 -99 141 -147 243 -116 71 21 131 79 172 166 32 69
34 80 37 199 l4 126 -27 22 c-32 25 -87 27 -181 6z m169 -122 c-4 -133 -17
-190 -59 -256 -80 -127 -230 -149 -308 -44 -32 43 -36 188 -7 244 46 92 169
150 321 152 l56 1 -3 -97z"/>
<path d="M1734 537 c-60 -16 -121 -49 -114 -63 3 -5 12 -8 20 -6 8 1 59 5 113
9 121 7 147 -2 147 -57 0 -37 -31 -143 -56 -192 -36 -69 3 -64 56 6 51 67 77
134 86 218 5 52 3 66 -10 77 -23 19 -178 24 -242 8z m220 -37 c10 -10 -1 -97
-15 -105 -5 -4 -9 7 -9 23 0 33 -34 82 -56 82 -8 0 -12 5 -8 11 7 12 73 4 88
-11z"/>
<path d="M63 533 c-24 -9 -13 -29 55 -94 164 -159 304 -251 502 -326 252 -97
562 -92 824 14 196 79 388 225 348 265 -8 8 -31 2 -89 -24 -115 -53 -305 -115
-413 -135 -147 -27 -422 -24 -559 5 -162 36 -415 144 -561 242 -59 39 -96 57
-107 53z m230 -158 c262 -137 475 -194 727 -193 206 0 372 32 590 116 58 22
107 38 109 36 14 -13 -140 -118 -237 -161 -187 -83 -430 -120 -610 -94 -223
33 -477 149 -632 290 -25 22 -48 41 -52 41 -8 0 -12 20 -4 20 2 0 51 -25 109
-55z"/>
</g>
</svg>
